<?xml version="1.0" encoding="UTF-8"?><svg xmlns="http://www.w3.org/2000/svg" viewBox="0 0 546.35 60.6"><defs><style>.d{fill:#231f1c;}</style></defs><g id="a"/><g id="b"><g id="c"><g><path class="d" d="M0,.84H18.52V37.79c0,1.68,.45,3.03,1.35,4.04,.9,1.01,2.08,1.52,3.54,1.52s2.61-.5,3.45-1.52c.84-1.01,1.26-2.36,1.26-4.04V.84h18.52V37.37c0,3.59-.56,6.82-1.68,9.68-1.12,2.86-2.71,5.3-4.76,7.32-2.05,2.02-4.52,3.56-7.41,4.63-2.89,1.06-6.13,1.6-9.72,1.6s-6.55-.53-9.39-1.6c-2.83-1.07-5.26-2.61-7.28-4.63-2.02-2.02-3.59-4.46-4.71-7.32-1.12-2.86-1.68-6.09-1.68-9.68V.84Z"/><path class="d" d="M68.77,30.05h4.21c1.91,0,3.34-.62,4.29-1.85,.95-1.23,1.43-2.61,1.43-4.12s-.46-2.89-1.39-4.12c-.93-1.23-2.37-1.85-4.33-1.85h-4.46V59.76h-18.52V.84h25.08c3.25,0,6.21,.48,8.88,1.43,2.67,.95,4.94,2.34,6.82,4.17,1.88,1.82,3.34,4.05,4.38,6.69,1.04,2.64,1.56,5.64,1.56,9.01,0,2.25-.35,4.5-1.05,6.78-.7,2.27-1.91,4.36-3.62,6.27-1.71,1.91-4.03,3.52-6.94,4.84-2.92,1.32-6.59,2.15-11.03,2.48h18.18l4.63,17.26h-19.19l-8.92-29.71Z"/><path class="d" d="M100.25,.84h24.49c7.13,0,12.53,1.29,16.2,3.87,3.67,2.58,5.51,6.34,5.51,11.28,0,3.82-1.04,6.96-3.11,9.43-2.08,2.47-4.94,4.01-8.59,4.63,3.65,.62,6.51,2.19,8.59,4.71,2.08,2.53,3.11,5.7,3.11,9.51,0,5.05-1.85,8.9-5.56,11.53-3.7,2.64-9.09,3.96-16.16,3.96h-24.49V.84Zm24.49,41.67c1.96,0,3.49-.5,4.59-1.52,1.09-1.01,1.64-2.41,1.64-4.21,0-1.46-.37-2.76-1.09-3.91-.73-1.15-1.8-2.09-3.2-2.82,2.75-1.4,4.12-3.54,4.12-6.4,0-1.79-.53-3.17-1.6-4.12-1.07-.95-2.55-1.43-4.46-1.43h-5.98v24.41h5.98Z"/><path class="d" d="M156.39,.84h37.04l8.25,58.92h-18.69l-1.6-11.19h-12.96l-1.6,11.19h-18.69L156.39,.84Zm22.64,30.47l-4.12-29.29-4.12,29.29h8.25Z"/><path class="d" d="M205.04,0l29.8,23.06V.84h18.52V60.6l-29.8-23.06v22.22h-18.52V0Z"/><path class="d" d="M296.45,.84l8.08,57.74L312.61,.84h18.69l-8.25,58.92h-37.04L277.76,.84h18.69Z"/><path class="d" d="M331.3,30.3c0-4.66,.69-8.85,2.06-12.58,1.38-3.73,3.34-6.92,5.89-9.55,2.55-2.64,5.64-4.66,9.26-6.06,3.62-1.4,7.7-2.1,12.25-2.1s8.63,.7,12.25,2.1c3.62,1.4,6.71,3.42,9.26,6.06,2.55,2.64,4.52,5.82,5.89,9.55,1.38,3.73,2.06,7.93,2.06,12.58s-.69,8.85-2.06,12.58c-1.38,3.73-3.34,6.92-5.89,9.55-2.55,2.64-5.64,4.66-9.26,6.06-3.62,1.4-7.7,2.1-12.25,2.1s-8.63-.7-12.25-2.1c-3.62-1.4-6.71-3.42-9.26-6.06-2.55-2.64-4.52-5.82-5.89-9.55-1.38-3.73-2.06-7.93-2.06-12.58Zm18.52,0c0,4.15,.95,7.36,2.86,9.64,1.91,2.27,4.6,3.41,8.08,3.41s6.17-1.14,8.08-3.41c1.91-2.27,2.86-5.48,2.86-9.64s-.96-7.37-2.86-9.64c-1.91-2.27-4.6-3.41-8.08-3.41s-6.17,1.14-8.08,3.41c-1.91,2.27-2.86,5.49-2.86,9.64Z"/><path class="d" d="M433.65,38.47c-.22,3.98-.69,7.38-1.39,10.18-.7,2.81-1.68,5.09-2.95,6.86s-2.83,3.06-4.71,3.87c-1.88,.81-4.11,1.22-6.69,1.22-3.59,0-6.89-.73-9.89-2.19-3-1.46-5.57-3.49-7.7-6.1-2.13-2.61-3.79-5.75-4.97-9.43-1.18-3.67-1.77-7.73-1.77-12.16,0-4.71,.69-8.96,2.06-12.75,1.37-3.79,3.34-7.01,5.89-9.68,2.55-2.66,5.68-4.71,9.38-6.14,3.7-1.43,7.88-2.15,12.54-2.15,8.08,0,14.52,2.09,19.32,6.27,4.8,4.18,7.84,9.89,9.13,17.13l-18.27,3.28c-.5-3.03-1.67-5.36-3.49-6.99-1.82-1.63-4.2-2.44-7.11-2.44-3.48,0-6.17,1.14-8.08,3.41-1.91,2.27-2.86,5.49-2.86,9.64s.95,7.36,2.86,9.64c1.91,2.27,4.6,3.41,8.08,3.41,3.25,0,5.83-.91,7.74-2.74,1.91-1.82,2.86-4.28,2.86-7.37h18.52v26.51h-18.52v-21.3Z"/><path class="d" d="M455.53,.84h18.52V37.79c0,1.68,.45,3.03,1.35,4.04,.9,1.01,2.08,1.52,3.54,1.52s2.61-.5,3.45-1.52c.84-1.01,1.26-2.36,1.26-4.04V.84h18.52V37.37c0,3.59-.56,6.82-1.68,9.68-1.12,2.86-2.71,5.3-4.76,7.32-2.05,2.02-4.52,3.56-7.41,4.63-2.89,1.06-6.13,1.6-9.72,1.6s-6.55-.53-9.38-1.6c-2.83-1.07-5.26-2.61-7.28-4.63-2.02-2.02-3.59-4.46-4.71-7.32-1.12-2.86-1.68-6.09-1.68-9.68V.84Z"/><path class="d" d="M505.53,.84h40.82V18.1h-22.31v3.62h20.62v17.25h-20.62v3.54h22.31v17.26h-40.82V.84Z"/></g></g></g></svg>