<svg width="180" height="20" viewBox="0 0 180 20" fill="none" xmlns="http://www.w3.org/2000/svg">
<g clip-path="url(#clip0_1_193)">
<path d="M0 0.277222H6.10158V12.4719C6.10158 13.0264 6.24984 13.4719 6.54635 13.8053C6.84287 14.1386 7.23163 14.3069 7.71264 14.3069C8.19365 14.3069 8.57253 14.1419 8.84927 13.8053C9.12602 13.4719 9.26439 13.0264 9.26439 12.4719V0.277222H15.366V12.3333C15.366 13.5181 15.1815 14.5842 14.8125 15.528C14.4435 16.4719 13.9197 17.2772 13.2443 17.9439C12.5689 18.6106 11.7551 19.1188 10.803 19.4719C9.85083 19.8218 8.78338 20 7.60062 20C6.41786 20 5.44267 19.8251 4.507 19.4719C3.57463 19.1188 2.77405 18.6106 2.10854 17.9439C1.44303 17.2772 0.92578 16.4719 0.556786 15.528C0.187792 14.5842 0.00329459 13.5181 0.00329459 12.3333V0.277222H0Z" fill="white"/>
<path d="M22.6569 9.91749H24.0439C24.6732 9.91749 25.1443 9.71287 25.4573 9.30693C25.7703 8.90098 25.9284 8.44554 25.9284 7.94719C25.9284 7.44884 25.7769 6.99339 25.4705 6.58745C25.1641 6.18151 24.6897 5.97689 24.0439 5.97689H22.5745V19.7228H16.473V0.277222H24.7358C25.8065 0.277222 26.7817 0.435638 27.6614 0.749169C28.541 1.0627 29.2889 1.52145 29.9083 2.12541C30.5277 2.72607 31.0087 3.46204 31.3513 4.33333C31.694 5.20462 31.8653 6.19471 31.8653 7.30692C31.8653 8.0495 31.75 8.79207 31.5194 9.54455C31.2887 10.2937 30.8901 10.9835 30.3267 11.6139C29.7633 12.2442 28.999 12.7756 28.0403 13.2112C27.0783 13.6469 25.8691 13.9208 24.4063 14.0297H30.3959L31.9213 19.7261H25.599L22.6602 9.92079L22.6569 9.91749Z" fill="white"/>
<path d="M33.0283 0.277222H41.0967C43.4458 0.277222 45.2248 0.702964 46.434 1.55445C47.6431 2.40593 48.2493 3.64686 48.2493 5.27722C48.2493 6.53795 47.9066 7.57425 47.2247 8.38943C46.5394 9.20462 45.5971 9.71287 44.3946 9.91749C45.5971 10.1221 46.5394 10.6403 47.2247 11.4719C47.9099 12.3069 48.2493 13.3531 48.2493 14.6106C48.2493 16.2772 47.6398 17.5478 46.4175 18.4158C45.1985 19.2871 43.4227 19.7228 41.0934 19.7228H33.025V0.277222H33.0283ZM41.0967 14.0297C41.7425 14.0297 42.2465 13.8647 42.6089 13.528C42.968 13.1947 43.1492 12.7327 43.1492 12.1386C43.1492 11.6568 43.0273 11.2277 42.7901 10.8482C42.5496 10.4686 42.1971 10.1584 41.7359 9.91749C42.6419 9.45544 43.0932 8.74917 43.0932 7.80527C43.0932 7.21452 42.9186 6.75907 42.5661 6.44554C42.2136 6.13201 41.726 5.97359 41.0967 5.97359H39.1265V14.0297H41.0967Z" fill="white"/>
<path d="M51.5241 0.277222H63.7273L66.4453 19.7228H60.2877L59.7606 16.0297H55.4908L54.9637 19.7228H48.8061L51.5241 0.277222ZM58.9831 10.3333L57.6257 0.666661L56.2683 10.3333H58.9864H58.9831Z" fill="white"/>
<path d="M67.5523 0L77.3702 7.61056V0.277228H83.4718V20L73.6539 12.3894V19.7228H67.5523V0Z" fill="white"/>
<path d="M97.6682 0.277222L100.33 19.3333L102.992 0.277222H109.15L106.432 19.7228H94.2286L91.5106 0.277222H97.6682Z" fill="white"/>
<path d="M109.15 10C109.15 8.46204 109.377 7.0792 109.828 5.84818C110.283 4.61716 110.929 3.56435 111.769 2.69637C112.609 1.82508 113.627 1.15841 114.82 0.696365C116.012 0.234319 117.357 0.0032959 118.856 0.0032959C120.355 0.0032959 121.699 0.234319 122.892 0.696365C124.084 1.15841 125.102 1.82508 125.942 2.69637C126.782 3.56765 127.432 4.61716 127.883 5.84818C128.338 7.0792 128.562 8.46534 128.562 10C128.562 11.5346 128.334 12.9208 127.883 14.1518C127.428 15.3828 126.782 16.4356 125.942 17.3036C125.102 18.1749 124.084 18.8416 122.892 19.3036C121.699 19.7657 120.355 19.9967 118.856 19.9967C117.357 19.9967 116.012 19.7657 114.82 19.3036C113.627 18.8416 112.609 18.1749 111.769 17.3036C110.929 16.4323 110.28 15.3828 109.828 14.1518C109.374 12.9208 109.15 11.5346 109.15 10ZM115.251 10C115.251 11.3696 115.564 12.429 116.194 13.1815C116.823 13.9307 117.709 14.3069 118.856 14.3069C120.002 14.3069 120.888 13.9307 121.518 13.1815C122.147 12.4323 122.46 11.3729 122.46 10C122.46 8.62706 122.144 7.56765 121.518 6.81848C120.888 6.0693 120.002 5.69306 118.856 5.69306C117.709 5.69306 116.823 6.0693 116.194 6.81848C115.564 7.56765 115.251 8.63036 115.251 10Z" fill="white"/>
<path d="M142.87 12.6964C142.797 14.0099 142.643 15.132 142.412 16.0561C142.181 16.9835 141.859 17.736 141.44 18.3201C141.022 18.9043 140.508 19.33 139.888 19.5974C139.269 19.8647 138.534 20 137.684 20C136.502 20 135.414 19.7591 134.426 19.2772C133.438 18.7954 132.591 18.1254 131.889 17.264C131.187 16.4026 130.64 15.3663 130.252 14.1518C129.863 12.9406 129.669 11.6007 129.669 10.1386C129.669 8.58416 129.896 7.18152 130.347 5.93069C130.799 4.67987 131.448 3.61716 132.288 2.73597C133.128 1.85809 134.159 1.18152 135.378 0.709571C136.597 0.237624 137.974 0 139.509 0C142.172 0 144.293 0.689769 145.875 2.06931C147.456 3.44884 148.458 5.33333 148.883 7.72277L142.863 8.80528C142.699 7.80528 142.313 7.0363 141.714 6.49835C141.114 5.9604 140.33 5.69307 139.371 5.69307C138.225 5.69307 137.338 6.06931 136.709 6.81848C136.08 7.56766 135.767 8.63036 135.767 10C135.767 11.3696 136.08 12.429 136.709 13.1815C137.338 13.9307 138.225 14.3069 139.371 14.3069C140.442 14.3069 141.292 14.0066 141.921 13.4026C142.55 12.802 142.863 11.9901 142.863 10.9703H148.965V19.7195H142.863V12.6898L142.87 12.6964Z" fill="white"/>
<path d="M150.079 0.277222H156.18V12.4719C156.18 13.0264 156.328 13.4719 156.625 13.8053C156.921 14.1386 157.31 14.3069 157.791 14.3069C158.272 14.3069 158.651 14.1419 158.928 13.8053C159.205 13.4719 159.343 13.0264 159.343 12.4719V0.277222H165.445V12.3333C165.445 13.5181 165.26 14.5842 164.891 15.528C164.522 16.4719 163.998 17.2772 163.323 17.9439C162.647 18.6106 161.834 19.1188 160.882 19.4719C159.929 19.8218 158.862 20 157.679 20C156.496 20 155.521 19.8251 154.589 19.4719C153.656 19.1188 152.856 18.6106 152.19 17.9439C151.525 17.2772 151.008 16.4719 150.639 15.528C150.27 14.5842 150.085 13.5181 150.085 12.3333V0.277222H150.079Z" fill="white"/>
<path d="M166.551 0.277222H180V5.97359H172.65V7.16831H179.443V12.8614H172.65V14.0297H180V19.7261H166.551V0.277222Z" fill="white"/>
</g>
<defs>
<clipPath id="clip0_1_193">
<rect width="180" height="20" fill="white"/>
</clipPath>
</defs>
</svg>
