<svg width="34" height="25" viewBox="0 0 34 25" fill="none" xmlns="http://www.w3.org/2000/svg">
<rect x="0.5" y="1.04492" width="33" height="23" rx="3.5" fill="white"/>
<path fill-rule="evenodd" clip-rule="evenodd" d="M17.179 17.3743C15.9949 18.3724 14.459 18.9749 12.7807 18.9749C9.03582 18.9749 6 15.9752 6 12.2749C6 8.57458 9.03582 5.57489 12.7807 5.57489C14.459 5.57489 15.9949 6.17739 17.179 7.17543C18.363 6.17739 19.8989 5.57489 21.5773 5.57489C25.3221 5.57489 28.358 8.57458 28.358 12.2749C28.358 15.9752 25.3221 18.9749 21.5773 18.9749C19.8989 18.9749 18.363 18.3724 17.179 17.3743Z" fill="#ED0006"/>
<path fill-rule="evenodd" clip-rule="evenodd" d="M17.179 17.3744C18.6369 16.1454 19.5614 14.3168 19.5614 12.2749C19.5614 10.2329 18.6369 8.40433 17.179 7.17543C18.363 6.17739 19.8989 5.57489 21.5773 5.57489C25.3221 5.57489 28.3579 8.57458 28.3579 12.2749C28.3579 15.9752 25.3221 18.9749 21.5773 18.9749C19.8989 18.9749 18.363 18.3724 17.179 17.3744Z" fill="#F9A000"/>
<path fill-rule="evenodd" clip-rule="evenodd" d="M17.179 17.3743C18.6369 16.1454 19.5614 14.3169 19.5614 12.2749C19.5614 10.233 18.6369 8.40438 17.179 7.17548C15.7211 8.40438 14.7966 10.233 14.7966 12.2749C14.7966 14.3169 15.7211 16.1454 17.179 17.3743Z" fill="#FF5E00"/>
<rect x="0.5" y="1.04492" width="33" height="23" rx="3.5" stroke="#F2F4F7"/>
</svg>
