<svg width="34" height="25" viewBox="0 0 34 25" fill="none" xmlns="http://www.w3.org/2000/svg">
<rect x="0.5" y="1.04492" width="33" height="23" rx="3.5" fill="white"/>
<path fill-rule="evenodd" clip-rule="evenodd" d="M10.7503 16.4031H8.69051L7.14596 10.3373C7.07265 10.0582 6.91699 9.81156 6.68802 9.6953C6.11659 9.40313 5.48692 9.1706 4.8 9.05333V8.81979H8.11808C8.57603 8.81979 8.91948 9.1706 8.97673 9.57803L9.77813 13.9535L11.8369 8.81979H13.8394L10.7503 16.4031ZM14.9842 16.4031H13.039L14.6408 8.81979H16.586L14.9842 16.4031ZM19.1027 10.9206C19.1599 10.5122 19.5034 10.2786 19.9041 10.2786C20.5338 10.22 21.2197 10.3373 21.7921 10.6284L22.1356 8.99571C21.5631 8.76217 20.9335 8.6449 20.362 8.6449C18.474 8.6449 17.1002 9.6953 17.1002 11.1531C17.1002 12.2622 18.0733 12.8445 18.7603 13.1953C19.5034 13.5451 19.7896 13.7786 19.7324 14.1284C19.7324 14.6531 19.1599 14.8867 18.5885 14.8867C17.9016 14.8867 17.2147 14.7118 16.586 14.4196L16.2426 16.0534C16.9295 16.3445 17.6726 16.4618 18.3596 16.4618C20.4765 16.5194 21.7921 15.47 21.7921 13.8949C21.7921 11.9114 19.1027 11.7951 19.1027 10.9206ZM28.6 16.4031L27.0554 8.81979H25.3964C25.0529 8.81979 24.7095 9.05333 24.595 9.40313L21.7349 16.4031H23.7374L24.1371 15.2951H26.5975L26.8265 16.4031H28.6ZM25.6826 10.862L26.254 13.72H24.6523L25.6826 10.862Z" fill="#172B85"/>
<rect x="0.5" y="1.04492" width="33" height="23" rx="3.5" stroke="#F2F4F7"/>
</svg>
